<svg width="70" height="70" viewBox="0 0 70 70" fill="none" xmlns="http://www.w3.org/2000/svg" aria-hidden="true" focusable="false"><g>
<path d="M37.25 32.23C37.31 32.23 37.36 32.22 37.42 32.21C37.47 32.20 37.53 32.18 37.58 32.16C37.63 32.14 37.68 32.12 37.72 32.08C37.77 32.05 37.81 32.02 37.85 31.98C37.89 31.94 37.93 31.90 37.96 31.85C37.99 31.80 38.01 31.75 38.04 31.70C38.06 31.65 38.07 31.60 38.08 31.54C38.10 31.49 38.10 31.43 38.10 31.38C38.10 31.32 38.10 31.27 38.08 31.21C38.07 31.16 38.06 31.10 38.04 31.05C38.01 31.00 37.99 30.95 37.96 30.91C37.93 30.86 37.89 30.82 37.85 30.78C37.81 30.74 37.77 30.70 37.72 30.67C37.68 30.64 37.63 30.62 37.58 30.59C37.53 30.57 37.47 30.56 37.42 30.55C37.36 30.53 37.31 30.53 37.25 30.53H36.40C36.35 30.53 36.29 30.53 36.24 30.55C36.18 30.56 36.13 30.57 36.08 30.59C36.03 30.62 35.98 30.64 35.93 30.67C35.89 30.70 35.84 30.74 35.80 30.78C35.76 30.82 35.73 30.86 35.70 30.91C35.67 30.95 35.64 31.00 35.62 31.05C35.60 31.10 35.58 31.16 35.57 31.21C35.56 31.27 35.55 31.32 35.55 31.38C35.55 31.43 35.56 31.49 35.57 31.54C35.58 31.60 35.60 31.65 35.62 31.70C35.64 31.75 35.67 31.80 35.70 31.85C35.73 31.90 35.76 31.94 35.80 31.98C35.84 32.02 35.89 32.05 35.93 32.08C35.98 32.12 36.03 32.14 36.08 32.16C36.13 32.18 36.18 32.20 36.24 32.21C36.29 32.22 36.35 32.23 36.40 32.23H37.25Z" fill="white"/>
<path d="M26.22 54.30C26.22 54.36 26.23 54.41 26.24 54.47C26.25 54.52 26.26 54.57 26.28 54.63C26.31 54.68 26.33 54.73 26.36 54.77C26.39 54.82 26.43 54.86 26.47 54.90C26.51 54.94 26.55 54.98 26.60 55.01C26.64 55.04 26.69 55.06 26.74 55.09C26.80 55.11 26.85 55.12 26.90 55.13C26.96 55.14 27.01 55.15 27.07 55.15C27.12 55.15 27.18 55.14 27.23 55.13C27.29 55.12 27.34 55.11 27.39 55.09C27.44 55.06 27.49 55.04 27.54 55.01C27.59 54.98 27.63 54.94 27.67 54.90C27.71 54.86 27.74 54.82 27.77 54.77C27.80 54.73 27.83 54.68 27.85 54.63C27.87 54.57 27.89 54.52 27.90 54.47C27.91 54.41 27.92 54.36 27.92 54.30C27.92 54.24 27.91 54.19 27.90 54.14C27.89 54.08 27.87 54.03 27.85 53.98C27.83 53.92 27.80 53.88 27.77 53.83C27.74 53.78 27.71 53.74 27.67 53.70C27.63 53.66 27.59 53.63 27.54 53.59C27.49 53.56 27.44 53.54 27.39 53.52C27.34 53.50 27.29 53.48 27.23 53.47C27.18 53.46 27.12 53.45 27.07 53.45C27.01 53.45 26.96 53.46 26.90 53.47C26.85 53.48 26.80 53.50 26.74 53.52C26.69 53.54 26.64 53.56 26.60 53.59C26.55 53.63 26.51 53.66 26.47 53.70C26.43 53.74 26.39 53.78 26.36 53.83C26.33 53.88 26.31 53.92 26.28 53.98C26.26 54.03 26.25 54.08 26.24 54.14C26.23 54.19 26.22 54.24 26.22 54.30Z" fill="white"/>
<path d="M24.52 50.90C24.52 50.85 24.52 50.79 24.51 50.74C24.50 50.68 24.48 50.63 24.46 50.58C24.44 50.53 24.41 50.48 24.38 50.43C24.35 50.39 24.31 50.34 24.27 50.30C24.23 50.27 24.19 50.23 24.15 50.20C24.10 50.17 24.05 50.14 24.00 50.12C23.95 50.10 23.89 50.08 23.84 50.07C23.78 50.06 23.73 50.06 23.67 50.06C23.62 50.06 23.56 50.06 23.51 50.07C23.45 50.08 23.40 50.10 23.35 50.12C23.30 50.14 23.25 50.17 23.20 50.20C23.16 50.23 23.11 50.27 23.07 50.30C23.03 50.34 23.00 50.39 22.97 50.43C22.94 50.48 22.91 50.53 22.89 50.58C22.87 50.63 22.85 50.68 22.84 50.74C22.83 50.79 22.83 50.85 22.83 50.90C22.83 50.96 22.83 51.02 22.84 51.07C22.85 51.12 22.87 51.18 22.89 51.23C22.91 51.28 22.94 51.33 22.97 51.38C23.00 51.42 23.03 51.47 23.07 51.51C23.11 51.54 23.16 51.58 23.20 51.61C23.25 51.64 23.30 51.67 23.35 51.69C23.40 51.71 23.45 51.73 23.51 51.74C23.56 51.75 23.62 51.75 23.67 51.75C23.73 51.75 23.78 51.75 23.84 51.74C23.89 51.73 23.95 51.71 24.00 51.69C24.05 51.67 24.10 51.64 24.15 51.61C24.19 51.58 24.23 51.54 24.27 51.51C24.31 51.47 24.35 51.42 24.38 51.38C24.41 51.33 24.44 51.28 24.46 51.23C24.48 51.18 24.50 51.12 24.51 51.07C24.52 51.02 24.52 50.96 24.52 50.90Z" fill="white"/>
<path d="M28.77 50.06C28.77 50.00 28.76 49.94 28.75 49.89C28.74 49.84 28.72 49.78 28.70 49.73C28.68 49.68 28.65 49.63 28.62 49.58C28.59 49.54 28.56 49.49 28.52 49.46C28.48 49.42 28.43 49.38 28.39 49.35C28.34 49.32 28.29 49.29 28.24 49.27C28.19 49.25 28.14 49.23 28.08 49.22C28.03 49.21 27.97 49.21 27.92 49.21C27.86 49.21 27.81 49.21 27.75 49.22C27.70 49.23 27.64 49.25 27.59 49.27C27.54 49.29 27.49 49.32 27.45 49.35C27.40 49.38 27.36 49.42 27.32 49.46C27.28 49.49 27.24 49.54 27.21 49.58C27.18 49.63 27.15 49.68 27.13 49.73C27.11 49.78 27.10 49.84 27.08 49.89C27.07 49.94 27.07 50.00 27.07 50.06C27.07 50.11 27.07 50.17 27.08 50.22C27.10 50.28 27.11 50.33 27.13 50.38C27.15 50.43 27.18 50.48 27.21 50.53C27.24 50.57 27.28 50.62 27.32 50.66C27.36 50.70 27.40 50.73 27.45 50.76C27.49 50.79 27.54 50.82 27.59 50.84C27.64 50.86 27.70 50.88 27.75 50.89C27.81 50.90 27.86 50.90 27.92 50.90C27.97 50.90 28.03 50.90 28.08 50.89C28.14 50.88 28.19 50.86 28.24 50.84C28.29 50.82 28.34 50.79 28.39 50.76C28.43 50.73 28.48 50.70 28.52 50.66C28.56 50.62 28.59 50.57 28.62 50.53C28.65 50.48 28.68 50.43 28.70 50.38C28.72 50.33 28.74 50.28 28.75 50.22C28.76 50.17 28.77 50.11 28.77 50.06Z" fill="white"/>
<path d="M48.18 19.49H54.23C54.28 19.49 54.34 19.49 54.39 19.48C54.45 19.46 54.50 19.45 54.55 19.43C54.60 19.41 54.65 19.38 54.70 19.35C54.74 19.32 54.79 19.28 54.83 19.24C54.86 19.20 54.90 19.16 54.93 19.11C54.96 19.07 54.99 19.02 55.01 18.97C55.03 18.92 55.05 18.86 55.06 18.81C55.07 18.75 55.07 18.70 55.07 18.64V15.25C55.07 15.19 55.07 15.14 55.06 15.08C55.05 15.03 55.03 14.97 55.01 14.92C54.99 14.87 54.96 14.82 54.93 14.78C54.90 14.73 54.86 14.69 54.83 14.65C54.79 14.61 54.74 14.57 54.70 14.54C54.65 14.51 54.60 14.48 54.55 14.46C54.50 14.44 54.45 14.43 54.39 14.41C54.34 14.40 54.28 14.40 54.23 14.40H47.67C47.44 14.40 47.23 14.42 47.01 14.45C46.79 14.48 46.57 14.52 46.36 14.58C46.15 14.64 45.94 14.71 45.74 14.80C45.53 14.88 45.34 14.98 45.15 15.09C44.96 15.20 44.77 15.33 44.60 15.46C44.42 15.60 44.26 15.74 44.10 15.90C43.95 16.06 43.80 16.22 43.67 16.40C43.54 16.57 43.41 16.75 43.30 16.95L42.77 17.87C42.74 17.92 42.72 17.97 42.70 18.02C42.68 18.08 42.67 18.13 42.66 18.19C42.65 18.24 42.65 18.30 42.66 18.35C42.66 18.41 42.67 18.46 42.68 18.52C42.70 18.57 42.72 18.62 42.74 18.67C42.77 18.72 42.80 18.77 42.83 18.82C42.87 18.86 42.90 18.90 42.95 18.94C42.99 18.97 43.03 19.01 43.08 19.03C44.72 19.95 44.26 16.10 47.67 16.10H53.38V17.79H48.18C48.07 17.79 47.96 17.80 47.85 17.82C47.74 17.83 47.63 17.85 47.52 17.88C47.42 17.91 47.31 17.95 47.21 17.99C47.10 18.03 47.01 18.08 46.91 18.14C46.81 18.19 46.72 18.25 46.63 18.32C46.54 18.39 46.46 18.46 46.38 18.54C46.30 18.62 46.23 18.70 46.16 18.79C46.09 18.88 46.03 18.97 45.98 19.07L42.79 24.59H40.84L42.60 21.55C42.63 21.50 42.65 21.45 42.67 21.39C42.69 21.34 42.70 21.29 42.70 21.23C42.71 21.18 42.71 21.12 42.71 21.06C42.71 21.01 42.70 20.95 42.68 20.90C42.67 20.85 42.65 20.79 42.62 20.74C42.60 20.69 42.57 20.65 42.53 20.60C42.50 20.56 42.46 20.52 42.42 20.48C42.38 20.44 42.33 20.41 42.28 20.38C42.24 20.36 42.19 20.33 42.13 20.32C42.08 20.30 42.03 20.28 41.97 20.28C41.91 20.27 41.86 20.27 41.80 20.27C41.75 20.28 41.69 20.29 41.64 20.30C41.58 20.31 41.53 20.33 41.48 20.36C41.43 20.38 41.38 20.41 41.34 20.45C41.30 20.48 41.26 20.52 41.22 20.56C41.18 20.60 41.15 20.65 41.12 20.70L38.88 24.59H27.07V16.95H37.25C37.34 16.95 37.43 16.93 37.52 16.90C37.60 16.87 37.68 16.83 37.75 16.78C37.83 16.73 37.89 16.66 37.94 16.59C37.99 16.52 38.03 16.44 38.06 16.35C38.09 16.26 38.10 16.18 38.10 16.09C38.10 16.00 38.08 15.91 38.05 15.82C38.02 15.74 37.98 15.66 37.93 15.59C37.87 15.51 37.81 15.45 37.74 15.40C25.85 7.20 26.70 7.71 26.47 7.65C25.93 7.48 26.01 7.57 22.09 10.28C22.05 10.31 22.01 10.35 21.98 10.39C21.94 10.43 21.91 10.47 21.88 10.52C21.86 10.57 21.83 10.62 21.82 10.67C21.80 10.72 21.78 10.77 21.78 10.82C21.77 10.88 21.76 10.93 21.77 10.98C21.77 11.04 21.78 11.09 21.79 11.14C21.80 11.20 21.82 11.25 21.84 11.30C21.86 11.35 21.89 11.39 21.92 11.44C21.95 11.48 21.98 11.52 22.02 11.56C22.06 11.60 22.10 11.63 22.15 11.66C22.19 11.69 22.24 11.71 22.29 11.74C22.34 11.76 22.39 11.77 22.44 11.78C22.50 11.79 22.55 11.8 22.60 11.80C22.66 11.80 22.71 11.80 22.76 11.79C22.82 11.78 22.87 11.76 22.92 11.74C22.97 11.73 23.02 11.70 23.06 11.67L24.40 10.75L22.63 15.25H17.90L20.28 13.60C20.32 13.57 20.36 13.53 20.40 13.49C20.43 13.45 20.46 13.41 20.49 13.36C20.52 13.31 20.54 13.26 20.56 13.21C20.58 13.16 20.59 13.11 20.60 13.06C20.61 13.00 20.61 12.95 20.61 12.90C20.60 12.84 20.60 12.79 20.59 12.74C20.57 12.69 20.56 12.63 20.53 12.58C20.51 12.54 20.49 12.49 20.46 12.44C20.42 12.40 20.39 12.36 20.35 12.32C20.31 12.28 20.27 12.25 20.23 12.22C20.18 12.19 20.13 12.17 20.08 12.15C20.03 12.12 19.98 12.11 19.93 12.10C19.88 12.09 19.82 12.08 19.77 12.08C19.72 12.08 19.66 12.08 19.61 12.09C19.56 12.10 19.51 12.12 19.45 12.14C19.40 12.16 19.36 12.18 19.31 12.21L14.70 15.40C14.63 15.45 14.56 15.51 14.51 15.59C14.46 15.66 14.41 15.74 14.39 15.82C14.36 15.91 14.34 16.00 14.34 16.09C14.34 16.18 14.35 16.26 14.38 16.35C14.41 16.44 14.45 16.52 14.50 16.59C14.55 16.66 14.61 16.73 14.69 16.78C14.76 16.83 14.84 16.87 14.92 16.90C15.01 16.93 15.10 16.95 15.19 16.95H25.37V24.59H22.82C22.66 24.59 22.49 24.60 22.33 24.62C22.17 24.65 22.01 24.68 21.85 24.73C21.69 24.78 21.53 24.84 21.38 24.91C21.23 24.98 21.09 25.06 20.95 25.15C20.82 25.24 20.68 25.34 20.56 25.45C20.44 25.56 20.32 25.68 20.22 25.81C20.11 25.93 20.01 26.07 19.93 26.21C19.84 26.35 19.77 26.50 19.70 26.65L18.00 30.53H17.13C17.05 30.53 16.97 30.54 16.90 30.56C16.82 30.58 16.75 30.62 16.68 30.66C16.61 30.70 16.55 30.75 16.50 30.81C16.45 30.87 16.40 30.93 16.37 31.00C16.10 31.56 15.85 32.13 15.63 32.71C15.42 33.29 15.23 33.88 15.06 34.48C14.90 35.07 14.76 35.68 14.65 36.29C14.54 36.90 14.46 37.51 14.41 38.13C14.36 38.75 14.33 39.36 14.34 39.98C14.34 40.60 14.38 41.22 14.44 41.84C14.50 42.45 14.59 43.07 14.70 43.67C14.82 44.28 14.96 44.88 15.14 45.48C15.15 45.53 15.17 45.58 15.20 45.63C15.22 45.68 15.25 45.73 15.29 45.77C15.32 45.82 15.36 45.86 15.41 45.89C15.45 45.93 15.49 45.96 15.54 45.99C15.59 46.01 15.64 46.03 15.70 46.05C15.75 46.07 15.80 46.08 15.86 46.09C15.91 46.09 15.97 46.09 16.02 46.09C16.08 46.08 16.13 46.07 16.19 46.06C16.24 46.04 16.29 46.02 16.34 45.99C16.39 45.97 16.44 45.94 16.48 45.90C16.52 45.87 16.56 45.83 16.60 45.79C16.64 45.74 16.67 45.70 16.69 45.65C16.72 45.60 16.74 45.55 16.76 45.50C16.78 45.44 16.79 45.39 16.79 45.33C16.80 45.28 16.80 45.22 16.80 45.17C16.79 45.11 16.78 45.06 16.77 45.00C16.61 44.48 16.49 43.95 16.38 43.42C16.28 42.89 16.20 42.35 16.14 41.81C16.09 41.27 16.05 40.73 16.04 40.19C16.03 39.64 16.05 39.10 16.09 38.56C16.13 38.02 16.19 37.48 16.27 36.94C16.36 36.40 16.47 35.87 16.60 35.34C16.73 34.82 16.89 34.30 17.06 33.78C17.24 33.27 17.44 32.77 17.66 32.27H19.66C19.30 33.19 19.03 34.13 18.85 35.10C18.67 36.07 18.58 37.04 18.58 38.03C18.58 38.08 18.59 38.14 18.60 38.19C18.61 38.25 18.62 38.30 18.65 38.35C18.67 38.40 18.69 38.45 18.72 38.50C18.76 38.54 18.79 38.59 18.83 38.63C18.87 38.67 18.91 38.70 18.96 38.73C19.00 38.76 19.05 38.79 19.10 38.81C19.16 38.83 19.21 38.85 19.26 38.86C19.32 38.87 19.37 38.87 19.43 38.87C21.05 38.87 19.49 36.74 21.49 32.23H33.01C33.06 32.23 33.12 32.22 33.17 32.21C33.23 32.20 33.28 32.18 33.33 32.16C33.38 32.14 33.43 32.12 33.48 32.08C33.53 32.05 33.57 32.02 33.61 31.98C33.65 31.94 33.68 31.90 33.71 31.85C33.75 31.80 33.77 31.75 33.79 31.70C33.81 31.65 33.83 31.60 33.84 31.54C33.85 31.49 33.86 31.43 33.86 31.38C33.86 31.32 33.85 31.27 33.84 31.21C33.83 31.16 33.81 31.10 33.79 31.05C33.77 31.00 33.75 30.95 33.71 30.91C33.68 30.86 33.65 30.82 33.61 30.78C33.57 30.74 33.53 30.70 33.48 30.67C33.43 30.64 33.38 30.62 33.33 30.59C33.28 30.57 33.23 30.56 33.17 30.55C33.12 30.53 33.06 30.53 33.01 30.53H19.87L21.25 27.31C21.28 27.23 21.32 27.16 21.36 27.09C21.40 27.02 21.45 26.95 21.51 26.89C21.56 26.82 21.62 26.76 21.68 26.71C21.74 26.65 21.81 26.60 21.88 26.56C21.95 26.51 22.02 26.47 22.10 26.44C22.17 26.40 22.25 26.37 22.33 26.35C22.41 26.33 22.49 26.31 22.58 26.30C22.66 26.29 22.74 26.28 22.82 26.28H28.77V28.83C28.77 28.89 28.77 28.94 28.78 29.00C28.79 29.05 28.81 29.10 28.83 29.16C28.85 29.21 28.88 29.26 28.91 29.30C28.94 29.35 28.97 29.39 29.01 29.43C29.05 29.47 29.10 29.51 29.14 29.54C29.19 29.57 29.24 29.59 29.29 29.62C29.34 29.64 29.39 29.65 29.45 29.66C29.50 29.67 29.56 29.68 29.61 29.68C29.67 29.68 29.72 29.67 29.78 29.66C29.83 29.65 29.89 29.64 29.94 29.62C29.99 29.59 30.04 29.57 30.09 29.54C30.13 29.51 30.17 29.47 30.21 29.43C30.25 29.39 30.29 29.35 30.32 29.30C30.35 29.26 30.38 29.21 30.40 29.16C30.42 29.10 30.44 29.05 30.45 29.00C30.46 28.94 30.46 28.89 30.46 28.83V26.28H46.59C46.67 26.28 46.75 26.29 46.83 26.30C46.92 26.31 47.00 26.33 47.08 26.36C47.15 26.38 47.23 26.41 47.31 26.44C47.38 26.48 47.45 26.52 47.52 26.56C47.59 26.61 47.66 26.66 47.72 26.71C47.78 26.77 47.84 26.83 47.89 26.89C47.94 26.95 47.99 27.02 48.03 27.09C48.08 27.16 48.12 27.24 48.15 27.31L49.54 30.53H40.65C40.59 30.53 40.54 30.53 40.48 30.55C40.43 30.56 40.37 30.57 40.32 30.59C40.27 30.62 40.22 30.64 40.18 30.67C40.13 30.70 40.09 30.74 40.05 30.78C40.01 30.82 39.97 30.86 39.94 30.91C39.91 30.95 39.88 31.00 39.86 31.05C39.84 31.10 39.83 31.16 39.81 31.21C39.80 31.27 39.80 31.32 39.80 31.38C39.80 31.43 39.80 31.49 39.81 31.54C39.83 31.60 39.84 31.65 39.86 31.70C39.88 31.75 39.91 31.80 39.94 31.85C39.97 31.90 40.01 31.94 40.05 31.98C40.09 32.02 40.13 32.05 40.18 32.08C40.22 32.12 40.27 32.14 40.32 32.16C40.37 32.18 40.43 32.20 40.48 32.21C40.54 32.22 40.59 32.23 40.65 32.23H43.25C43.40 32.55 43.53 32.87 43.65 33.20C43.78 33.52 43.90 33.85 44.00 34.18C44.11 34.52 44.21 34.85 44.29 35.19C44.38 35.53 44.46 35.87 44.53 36.21C44.60 36.56 44.65 36.90 44.70 37.25C44.75 37.59 44.79 37.94 44.82 38.29C44.85 38.64 44.87 38.99 44.88 39.34C44.89 39.69 44.89 40.04 44.88 40.39C44.87 40.73 44.85 41.08 44.83 41.43C44.80 41.78 44.76 42.13 44.71 42.47C44.66 42.82 44.60 43.17 44.53 43.51C44.47 43.85 44.39 44.19 44.30 44.53C44.21 44.87 44.12 45.21 44.01 45.54C43.91 45.87 43.79 46.20 43.67 46.53C43.54 46.86 43.41 47.18 43.27 47.50C43.12 47.82 42.97 48.13 42.81 48.44C42.79 48.49 42.77 48.54 42.76 48.59C42.75 48.65 42.74 48.70 42.74 48.75C42.74 48.80 42.74 48.86 42.75 48.91C42.76 48.96 42.77 49.01 42.79 49.06C42.81 49.11 42.83 49.16 42.86 49.21C42.88 49.25 42.92 49.30 42.95 49.34C42.99 49.38 43.02 49.41 43.07 49.45C43.11 49.48 43.15 49.51 43.20 49.53C43.25 49.56 43.29 49.58 43.35 49.59C43.40 49.61 43.45 49.62 43.50 49.62C43.55 49.63 43.61 49.63 43.66 49.63C43.71 49.62 43.77 49.61 43.82 49.60C43.87 49.58 43.92 49.56 43.96 49.54C44.01 49.52 44.06 49.49 44.10 49.46C44.14 49.43 44.18 49.39 44.22 49.35C44.25 49.31 44.29 49.27 44.31 49.22C44.48 48.90 44.64 48.57 44.79 48.24C44.94 47.90 45.08 47.57 45.21 47.23C45.34 46.89 45.47 46.54 45.58 46.19C45.69 45.85 45.80 45.50 45.89 45.14C45.99 44.79 46.07 44.44 46.15 44.08C46.22 43.72 46.29 43.36 46.34 43.00C46.40 42.64 46.45 42.28 46.48 41.91C46.52 41.55 46.55 41.19 46.56 40.82C46.58 40.46 46.59 40.09 46.58 39.72C46.58 39.36 46.57 38.99 46.55 38.63C46.52 38.26 46.49 37.90 46.45 37.54C46.41 37.17 46.36 36.81 46.30 36.45C46.23 36.09 46.16 35.73 46.08 35.38C46.00 35.02 45.91 34.67 45.81 34.32C45.71 33.97 45.60 33.62 45.48 33.27C45.37 32.93 45.24 32.58 45.10 32.24H47.92C49.91 36.75 48.38 38.89 49.98 38.89C50.04 38.89 50.09 38.89 50.15 38.88C50.20 38.86 50.26 38.85 50.31 38.83C50.36 38.81 50.41 38.78 50.45 38.75C50.50 38.72 50.54 38.68 50.58 38.64C50.62 38.60 50.66 38.56 50.69 38.51C50.72 38.47 50.74 38.42 50.77 38.37C50.79 38.32 50.80 38.26 50.81 38.21C50.83 38.15 50.83 38.10 50.83 38.04C50.83 37.05 50.75 36.06 50.56 35.08C50.38 34.11 50.11 33.15 49.75 32.23H51.75C51.88 32.50 52.00 32.78 52.11 33.07C52.23 33.35 52.34 33.64 52.44 33.93C52.54 34.21 52.63 34.51 52.72 34.80C52.80 35.09 52.88 35.39 52.96 35.68C53.03 35.98 53.09 36.28 53.15 36.58C53.21 36.88 53.26 37.18 53.30 37.48C53.34 37.79 53.38 38.09 53.41 38.39C53.44 38.70 53.46 39.00 53.47 39.31C53.48 39.62 53.49 39.92 53.49 40.23C53.48 40.53 53.47 40.84 53.46 41.14C53.44 41.45 53.41 41.75 53.38 42.06C53.35 42.36 53.31 42.66 53.26 42.97C53.22 43.27 53.16 43.57 53.10 43.87C53.04 44.17 52.97 44.47 52.89 44.76C52.82 45.06 52.73 45.35 52.64 45.64C52.55 45.94 52.45 46.22 52.35 46.51C52.25 46.80 52.13 47.08 52.01 47.36C51.90 47.65 51.77 47.93 51.64 48.20C51.50 48.48 51.37 48.75 51.22 49.02C51.07 49.29 50.92 49.55 50.76 49.81C50.60 50.07 50.44 50.33 50.27 50.58C50.09 50.84 49.92 51.08 49.73 51.33C49.55 51.57 49.36 51.81 49.16 52.05C48.97 52.28 48.77 52.51 48.56 52.74C48.35 52.96 48.14 53.18 47.92 53.40C47.71 53.61 47.48 53.82 47.26 54.02C47.03 54.23 46.80 54.43 46.56 54.62C46.32 54.81 46.08 55.00 45.83 55.18C45.59 55.36 45.33 55.53 45.08 55.70C44.82 55.87 44.56 56.03 44.30 56.19C44.04 56.34 43.77 56.49 43.50 56.63C43.23 56.77 42.96 56.91 42.68 57.04C42.40 57.17 42.12 57.29 41.84 57.40C41.56 57.52 41.27 57.63 40.98 57.73C40.69 57.83 40.40 57.92 40.11 58.01C39.82 58.10 39.52 58.18 39.22 58.25C38.93 58.32 38.63 58.39 38.33 58.44C38.03 58.50 37.73 58.55 37.42 58.59C37.12 58.64 36.82 58.67 36.51 58.70C36.21 58.73 35.90 58.75 35.60 58.76C35.29 58.77 34.99 58.78 34.68 58.78C34.38 58.77 34.07 58.77 33.77 58.75C33.46 58.73 33.16 58.71 32.85 58.67C32.55 58.64 32.25 58.60 31.94 58.56C31.64 58.51 31.34 58.45 31.04 58.39C30.74 58.33 30.45 58.26 30.15 58.19C29.85 58.11 29.56 58.03 29.27 57.94C28.98 57.84 28.69 57.75 28.40 57.64C28.11 57.54 27.83 57.42 27.55 57.31C27.27 57.19 26.99 57.06 26.71 56.93C26.44 56.80 26.16 56.66 25.90 56.51C25.63 56.36 25.36 56.21 25.10 56.05C24.84 55.89 24.58 55.73 24.33 55.56C24.08 55.39 23.83 55.21 23.58 55.02C23.34 54.84 23.10 54.65 22.87 54.46C22.63 54.26 22.40 54.06 22.18 53.85C21.95 53.64 21.73 53.43 21.52 53.21C21.30 53.00 21.09 52.77 20.89 52.55C20.69 52.32 20.49 52.09 20.30 51.85C20.10 51.61 19.92 51.37 19.74 51.12C19.56 50.87 19.38 50.62 19.21 50.37C19.05 50.11 18.88 49.85 18.73 49.59C18.57 49.33 18.43 49.06 18.28 48.79C18.14 48.52 18.01 48.24 17.88 47.97C17.85 47.92 17.82 47.87 17.79 47.83C17.76 47.78 17.72 47.74 17.68 47.70C17.63 47.67 17.59 47.63 17.54 47.61C17.49 47.58 17.44 47.55 17.39 47.54C17.34 47.52 17.28 47.51 17.23 47.50C17.17 47.49 17.12 47.49 17.06 47.49C17.00 47.50 16.95 47.50 16.90 47.52C16.84 47.53 16.79 47.55 16.74 47.58C16.69 47.60 16.64 47.63 16.60 47.66C16.55 47.70 16.51 47.74 16.48 47.78C16.44 47.82 16.41 47.86 16.38 47.91C16.35 47.96 16.33 48.01 16.31 48.06C16.29 48.12 16.28 48.17 16.27 48.23C16.26 48.28 16.26 48.34 16.26 48.39C16.27 48.45 16.28 48.50 16.29 48.56C16.31 48.61 16.32 48.66 16.35 48.71C16.49 49.01 16.65 49.31 16.81 49.60C16.96 49.90 17.13 50.19 17.30 50.47C17.48 50.76 17.66 51.04 17.85 51.31C18.03 51.59 18.23 51.86 18.43 52.13C18.63 52.39 18.84 52.65 19.05 52.91C19.26 53.17 19.48 53.42 19.71 53.66C19.93 53.91 20.17 54.15 20.40 54.38C20.64 54.61 20.88 54.84 21.13 55.06C21.38 55.29 21.64 55.50 21.90 55.71C22.15 55.92 22.42 56.12 22.69 56.32C22.96 56.52 23.23 56.71 23.51 56.89C23.79 57.07 24.07 57.25 24.36 57.42C24.65 57.59 24.94 57.75 25.23 57.91C25.53 58.06 25.83 58.21 26.13 58.35C26.43 58.49 26.74 58.62 27.05 58.75C27.36 58.87 27.67 58.99 27.98 59.1C28.30 59.21 28.61 59.31 28.93 59.41C29.25 59.50 29.58 59.59 29.9 59.67C30.22 59.74 30.55 59.81 30.88 59.88C31.20 59.94 31.53 59.99 31.86 60.04C32.19 60.09 32.52 60.13 32.86 60.16C33.19 60.19 33.52 60.21 33.85 60.22C34.19 60.24 34.52 60.24 34.85 60.24C35.19 60.24 35.52 60.23 35.85 60.21C36.19 60.19 36.52 60.16 36.85 60.12C37.18 60.09 37.51 60.05 37.84 59.99C38.17 59.94 38.50 59.88 38.83 59.82C39.15 59.75 39.48 59.67 39.80 59.59C40.12 59.51 40.44 59.41 40.76 59.32C41.08 59.22 41.40 59.11 41.71 58.99C42.02 58.88 42.33 58.76 42.64 58.63C42.95 58.50 43.25 58.36 43.55 58.21C43.85 58.07 44.15 57.92 44.44 57.76C44.73 57.60 45.02 57.43 45.30 57.26C45.59 57.08 45.87 56.90 46.15 56.72C46.42 56.53 46.69 56.34 46.96 56.13C47.22 55.93 47.49 55.73 47.74 55.51C48.00 55.30 48.25 55.08 48.49 54.85C48.74 54.63 48.98 54.40 49.21 54.16C49.45 53.92 49.67 53.68 49.90 53.43C50.12 53.18 50.33 52.93 50.54 52.67C50.75 52.41 50.96 52.14 51.15 51.87C51.35 51.60 51.54 51.33 51.72 51.05C51.91 50.77 52.08 50.49 52.25 50.20C52.42 49.91 52.58 49.62 52.74 49.33C52.89 49.03 53.04 48.73 53.18 48.43C53.32 48.13 53.45 47.82 53.58 47.51C53.70 47.20 53.82 46.89 53.93 46.58C54.04 46.26 54.14 45.94 54.24 45.62C54.33 45.31 54.42 44.98 54.50 44.66C54.57 44.33 54.65 44.01 54.71 43.68C54.77 43.35 54.83 43.02 54.87 42.69C54.92 42.36 54.96 42.03 54.99 41.70C55.02 41.37 55.04 41.04 55.05 40.70C55.07 40.37 55.07 40.04 55.07 39.70C55.07 39.37 55.06 39.04 55.04 38.70C55.02 38.37 54.99 38.04 54.96 37.71C54.92 37.37 54.88 37.04 54.83 36.71C54.77 36.38 54.71 36.06 54.65 35.73C54.58 35.40 54.50 35.08 54.42 34.76C54.34 34.43 54.25 34.11 54.15 33.79C54.05 33.48 53.94 33.16 53.83 32.85C53.71 32.53 53.59 32.22 53.46 31.92C53.33 31.61 53.19 31.30 53.05 31.00C52.77 30.44 52.27 30.53 51.35 30.53L49.65 26.65C49.59 26.50 49.51 26.35 49.43 26.22C49.34 26.08 49.25 25.94 49.15 25.82C49.04 25.69 48.93 25.57 48.81 25.47C48.69 25.36 48.56 25.26 48.42 25.16C48.29 25.07 48.15 24.99 48.00 24.92C47.85 24.85 47.70 24.79 47.55 24.74C47.39 24.69 47.23 24.66 47.07 24.63C46.91 24.60 46.75 24.59 46.59 24.59H44.75C47.57 19.70 47.52 19.49 48.18 19.49ZM29.81 15.25L28.04 10.75L34.54 15.25H29.81ZM26.22 10.77L27.98 15.25H24.45L26.22 10.77Z" fill="#E8775F"/>
</g></svg>
