<svg width="64" height="64" viewBox="0 0 64 64" fill="none" xmlns="http://www.w3.org/2000/svg" aria-hidden="true" focusable="false"><g opacity="0.85">
<path d="M32.00 43.52C38.36 43.52 43.52 38.36 43.52 32C43.52 25.64 38.36 20.48 32.00 20.48C25.64 20.48 20.48 25.64 20.48 32C20.48 38.36 25.64 43.52 32.00 43.52Z" fill="#E8775F" fill-opacity="0.18" stroke="#E8775F" stroke-width="2" stroke-linecap="round"/>
<path d="M32.00 40.32C36.59 40.32 40.32 36.60 40.32 32.00C40.32 27.41 36.59 23.68 32.00 23.68C27.40 23.68 23.68 27.41 23.68 32.00C23.68 36.60 27.40 40.32 32.00 40.32Z" stroke="#E8775F" stroke-width="2" stroke-linecap="round"/>
<path d="M32 8.96V14.08" stroke="#E8775F" stroke-width="2" stroke-linecap="round"/>
<path d="M32 49.92V55.04" stroke="#E8775F" stroke-width="2" stroke-linecap="round"/>
<path d="M8.96 32H14.08" stroke="#E8775F" stroke-width="2" stroke-linecap="round"/>
<path d="M49.92 32H55.04" stroke="#E8775F" stroke-width="2" stroke-linecap="round"/>
<path d="M14.08 14.08L17.92 17.92" stroke="#E8775F" stroke-width="2" stroke-linecap="round"/>
<path d="M46.08 46.08L49.92 49.92" stroke="#E8775F" stroke-width="2" stroke-linecap="round"/>
<path d="M14.08 49.92L17.92 46.08" stroke="#E8775F" stroke-width="2" stroke-linecap="round"/>
<path d="M46.08 17.92L49.92 14.08" stroke="#E8775F" stroke-width="2" stroke-linecap="round"/>
</g></svg>
